<svg version="1.1"
           baseProfile="full"
           width="300" height="200"
           xmlns="http://www.w3.org/2000/svg">

            <rect width="60" height="200" x="0" fill="#c2c2ff" id="#c2c2ff" /><rect width="60" height="200" x="60" fill="#8892b3" id="#8892b3" /><rect width="60" height="200" x="120" fill="#f0f4ff" id="#f0f4ff" /><rect width="60" height="200" x="180" fill="#e1e8ff" id="#e1e8ff" /><rect width="60" height="200" x="240" fill="#ffffff" id="#ffffff" />

          <g id="Muzli" transform="translate(115.000000, 65.000000)" fill="#FFFFFF">
              <path d="M35,70 C15.6700338,70 0,54.3299662 0,35 C0,15.6700338 15.6700338,0 35,0 C54.3299662,0 70,15.6700338 70,35 C70,54.3299662 54.3299662,70 35,70 Z M49.8916117,42.5283361 C49.655446,42.1625566 49.1675622,42.0429525 48.8035214,42.4667922 C48.5051462,42.7675442 48.2476679,43.0938427 47.9792455,43.4230442 C43.7927763,46.4450792 43.7196225,43.4596222 43.7668557,42.7216766 C43.9580923,41.9070916 44.2115384,41.2022404 44.525466,40.4462962 C45.2950206,38.5094069 46.3329977,36.9028803 47.1670658,34.9665716 C47.6797182,33.739759 48.2568842,32.5135269 48.705599,31.222848 C49.0264388,30.3200114 48.8340501,29.3515667 48.1929466,28.5770433 C47.4873296,27.8669666 46.5898999,27.7374923 45.4995055,27.9964409 C44.0243339,28.3837027 42.6781894,29.1582262 41.5238575,30.1260902 C41.3314688,30.3200114 41.0745666,30.4483245 40.882178,30.6422457 C40.882178,30.4483245 40.9466915,30.3200114 40.9466915,30.1905371 C41.2669553,29.1582262 41.6517326,28.1897815 41.2030177,27.0279963 C41.0106291,26.5124215 40.7543029,26.0601323 40.2410745,25.7373174 C39.1512561,25.1572957 38.1247993,25.2850282 37.1634321,25.5439768 C35.5603854,25.9956854 34.2770264,26.9635494 33.1232705,28.0608878 C32.8030067,28.3837027 32.4182294,28.7053564 32.0973897,29.0937793 C32.2252648,28.3837027 32.4182294,27.7374923 32.4182294,27.0279963 C32.4182294,25.2850282 31.3923486,24.188851 29.6608508,23.6076681 C28.3141303,23.220987 26.9674097,23.2842726 25.6206892,23.5432213 C24.2739686,23.8015893 22.9917617,24.2527173 21.8374298,25.0272408 C21.0678752,25.5439768 20.3622581,26.1245791 19.9780568,27.0930238 C19.7850922,27.6091792 19.7850922,28.1897815 19.9780568,28.7703838 C20.234959,29.4804604 21.0045136,29.8683028 21.7740682,29.2865393 C22.6714979,28.7053564 23.4410525,27.9964409 24.3384822,27.3513918 C25.6852027,26.3179197 27.0313473,25.4145025 28.8273587,25.2850282 C29.4045246,25.2205813 29.917753,25.47953 30.1095657,26.0601323 C30.1740792,26.3179197 30.2374407,26.705762 30.1095657,26.9635494 C29.917753,27.6091792 29.7247884,28.2542284 29.4045246,28.8354113 C28.5710325,30.3200114 27.6724508,31.7390034 26.7110835,33.2241841 C25.4928141,35.0960459 24.1460935,36.9667466 22.9272481,38.8380278 C22.0303944,40.1931536 21.1963263,41.6138874 20.4273477,42.9690132 C20.0425704,43.614643 19.7850922,44.324139 19.9135433,45.0986625 C20.0425704,46.1954202 21.517166,46.7766031 22.2227831,46.4537882 C22.9272481,46.131554 23.3126014,45.5503711 23.6968027,44.9697688 C24.4029958,43.7429561 25.1080368,42.5173046 25.8130778,41.2910725 C27.6085132,37.9996381 29.5969133,34.8370973 31.905001,31.9329246 C33.0593329,30.4483245 34.3415399,29.0937793 35.8812251,27.9964409 C36.5856901,27.5441518 37.2913072,27.15689 38.1893129,27.0930238 C38.5101526,27.0279963 38.7664788,27.2219175 38.8304164,27.5441518 C38.8943539,27.9319941 39.022805,28.3837027 38.8943539,28.7703838 C38.6380277,29.6093542 38.317188,30.4483245 37.8684731,31.222848 C36.2654264,33.998127 34.5990181,36.773406 32.9948194,39.548685 C32.2897783,40.7104702 31.6480988,42.0005686 31.0715089,43.2268006 C30.7512452,43.873011 31.0715089,44.7758476 31.7771259,45.0986625 C32.5466805,45.4853436 33.4435342,45.4853436 33.8294635,44.7114007 C35.2395456,41.9361217 36.7147173,39.1608427 38.1893129,36.4505911 C39.3436448,34.2559144 40.882178,32.3207669 42.9984531,30.9006137 C43.7680077,30.3838776 44.5369863,29.9971965 45.4995055,29.8032753 C46.0127339,29.673801 46.3975112,29.9327496 46.3329977,30.4483245 C46.3329977,30.7711394 46.2690601,31.0939542 46.0760955,31.3523223 C45.434992,32.5785543 44.7299509,33.739759 44.0882714,34.9665716 C42.9984531,36.8378529 41.8441212,38.7091341 41.2669553,40.9038108 C41.0106291,41.8722555 40.8182404,42.9045664 41.2030177,44.0013241 C41.7317985,45.4516687 43.2265546,46.585585 44.8342095,46.6302913 C44.8918109,46.6419034 44.9580525,46.6523542 45.0340863,46.6604827 C45.850298,46.7057696 46.6089083,46.497914 47.3421741,46.1814858 C48.0771678,45.8650575 48.7505281,45.4470238 49.3086856,44.8664215 C49.6813666,44.4779986 50.0091185,44.0622873 50.1047368,43.4706536 C50.1485139,43.1559672 50.0747841,42.8290881 49.8916117,42.5283361 Z" id="Muzli logo"></path>
          </g>

      </svg>